<?xml version="1.0"?><svg viewBox="0,0,1030,400" width="1030" xmlns="http://www.w3.org/2000/svg"><title>ZX Spectrum keyboard layout - torinak.com</title><!-- by Jan Bobrowski --><style>#k>rect {fill:#373F46}</style><rect width="100%" height="100%" style="fill:#000"/><g fill="#FFF" style="font:bold 12px 'Helvetica Neue',Helvetica,sans-serif"><g id="k"><rect x="25" y="46" width="66" height="48" rx="3" ry="3"/><rect x="119" y="46" width="66" height="48" rx="3" ry="3"/><rect x="213" y="46" width="66" height="48" rx="3" ry="3"/><rect x="307" y="46" width="66" height="48" rx="3" ry="3"/><rect x="401" y="46" width="66" height="48" rx="3" ry="3"/><rect x="495" y="46" width="66" height="48" rx="3" ry="3"/><rect x="589" y="46" width="66" height="48" rx="3" ry="3"/><rect x="683" y="46" width="66" height="48" rx="3" ry="3"/><rect x="777" y="46" width="66" height="48" rx="3" ry="3"/><rect x="871" y="46" width="66" height="48" rx="3" ry="3"/><rect x="71" y="140" width="66" height="48" rx="3" ry="3"/><rect x="165" y="140" width="66" height="48" rx="3" ry="3"/><rect x="259" y="140" width="66" height="48" rx="3" ry="3"/><rect x="353" y="140" width="66" height="48" rx="3" ry="3"/><rect x="447" y="140" width="66" height="48" rx="3" ry="3"/><rect x="541" y="140" width="66" height="48" rx="3" ry="3"/><rect x="635" y="140" width="66" height="48" rx="3" ry="3"/><rect x="729" y="140" width="66" height="48" rx="3" ry="3"/><rect x="823" y="140" width="66" height="48" rx="3" ry="3"/><rect x="917" y="140" width="66" height="48" rx="3" ry="3"/><rect x="95" y="234" width="66" height="48" rx="3" ry="3"/><rect x="189" y="234" width="66" height="48" rx="3" ry="3"/><rect x="283" y="234" width="66" height="48" rx="3" ry="3"/><rect x="377" y="234" width="66" height="48" rx="3" ry="3"/><rect x="471" y="234" width="66" height="48" rx="3" ry="3"/><rect x="565" y="234" width="66" height="48" rx="3" ry="3"/><rect x="659" y="234" width="66" height="48" rx="3" ry="3"/><rect x="753" y="234" width="66" height="48" rx="3" ry="3"/><rect x="847" y="234" width="66" height="48" rx="3" ry="3"/><rect x="941" y="234" width="66" height="48" rx="3" ry="3"/><rect x="25" y="328" width="92" height="48" rx="3" ry="3"/><rect x="145" y="328" width="66" height="48" rx="3" ry="3"/><rect x="239" y="328" width="66" height="48" rx="3" ry="3"/><rect x="333" y="328" width="66" height="48" rx="3" ry="3"/><rect x="427" y="328" width="66" height="48" rx="3" ry="3"/><rect x="521" y="328" width="66" height="48" rx="3" ry="3"/><rect x="615" y="328" width="66" height="48" rx="3" ry="3"/><rect x="709" y="328" width="66" height="48" rx="3" ry="3"/><rect x="803" y="328" width="66" height="48" rx="3" ry="3"/><rect x="897" y="328" width="110" height="48" rx="3" ry="3"/></g><g style="font-size:25px"><text x="30" y="78">1</text><text x="124" y="78">2</text><text x="218" y="78">3</text><text x="312" y="78">4</text><text x="406" y="78">5</text><text x="500" y="78">6</text><text x="594" y="78">7</text><text x="688" y="78">8</text><text x="782" y="78">9</text><text x="876" y="78">0</text><text x="76" y="165">Q</text><text x="170" y="165">W</text><text x="264" y="165">E</text><text x="358" y="165">R</text><text x="452" y="165">T</text><text x="546" y="165">Y</text><text x="640" y="165">U</text><text x="734" y="165">I</text><text x="828" y="165">O</text><text x="922" y="165">P</text><text x="100" y="259">A</text><text x="194" y="259">S</text><text x="288" y="259">D</text><text x="382" y="259">F</text><text x="476" y="259">G</text><text x="570" y="259">H</text><text x="664" y="259">J</text><text x="758" y="259">K</text><text x="852" y="259">L</text><text x="150" y="353">Z</text><text x="244" y="353">X</text><text x="338" y="353">C</text><text x="432" y="353">V</text><text x="526" y="353">B</text><text x="620" y="353">N</text><text x="714" y="353">M</text></g><g style="text-anchor:middle"><text x="974" y="262">ENTER</text><g style="font-size:16px"><text x="71" y="349">CAPS</text><text x="71" y="365">SHIFT</text></g><text x="952" y="346">BREAK</text><text x="952" y="365" style="font-size:19px">SPACE</text></g><g style="text-anchor:end"><text x="132" y="179">PLOT</text><text x="226" y="179">DRAW</text><text x="320" y="179">REM</text><text x="414" y="179">RUN</text><text x="508" y="179">RAND</text><text x="602" y="179">RETURN</text><text x="696" y="179">IF</text><text x="790" y="179">INPUT</text><text x="884" y="179">POKE</text><text x="978" y="179">PRINT</text><text x="156" y="273">NEW</text><text x="250" y="273">SAVE</text><text x="344" y="273">DIM</text><text x="438" y="273">FOR</text><text x="532" y="273">GOTO</text><text x="626" y="273">GOSUB</text><text x="720" y="273">LOAD</text><text x="814" y="273">LIST</text><text x="908" y="273">LET</text><text x="206" y="367">COPY</text><text x="300" y="367">CLEAR</text><text x="394" y="367">CONT</text><text x="488" y="367">CLS</text><text x="582" y="367">BORDER</text><text x="676" y="367">NEXT</text><text x="770" y="367">PAUSE</text></g><text x="26" y="40">EDIT</text><text x="120" y="40">CAPS LOCK</text><text x="214" y="40">TRUE VIDEO</text><text x="308" y="40">INV. VIDEO</text><text x="778" y="40">GRAPHICS</text><text x="872" y="40">DELETE</text><rect fill="#FFF" x="871" y="12" width="49" height="15"/><g fill="#4A4"><text x="72" y="134">SIN</text><text x="166" y="134">COS</text><text x="260" y="134">TAN</text><text x="354" y="134">INT</text><text x="448" y="134">RND</text><text x="542" y="134">STR $</text><text x="636" y="134">CHR $</text><text x="730" y="134">CODE</text><text x="824" y="134">PEEK</text><text x="918" y="134">TAB</text><text x="96" y="228">READ</text><text x="190" y="228">RESTORE</text><text x="284" y="228">DATA</text><text x="378" y="228">SGN</text><text x="472" y="228">ABS</text><text x="566" y="228">SQR</text><text x="660" y="228">VAL</text><text x="754" y="228">LEN</text><text x="848" y="228">USR</text><text x="146" y="322">LN</text><text x="240" y="322">EXP</text><text x="334" y="322">L PRINT</text><text x="428" y="322">L LIST</text><text x="522" y="322">BIN</text><text x="616" y="322">IN KEY $</text><text x="710" y="322">PI</text><text x="308" y="24">GREEN</text></g><g fill="#D32"><g style="text-anchor:middle;font-size:15px"><text x="73" y="83">!</text><text x="167" y="83">@</text><text x="261" y="83">#</text><text x="355" y="83">$</text><text x="449" y="83">%</text><text x="543" y="83">&amp;</text><text x="637" y="83">'</text><text x="731" y="83">(</text><text x="825" y="83">)</text><text x="919" y="83">—</text><text x="119" y="158">&lt;=</text><text x="213" y="158">&lt;></text><text x="307" y="158">>=</text><text x="401" y="158">&lt;</text><text x="495" y="158">></text><text x="871" y="158">;</text><text x="965" y="158">"</text><text x="613" y="252">↑</text><text x="707" y="252">−</text><text x="801" y="252">+</text><text x="895" y="252">=</text><text x="193" y="346">:</text><text x="287" y="346">£</text><text x="381" y="346">?</text><text x="475" y="346">/</text><text x="569" y="346">✻</text><text x="663" y="346">,</text><text x="757" y="346">.</text></g><g style="text-anchor:end"><text x="602" y="158">AND</text><text x="696" y="158">OR</text><text x="790" y="158">AT</text><text x="156" y="252">STOP</text><text x="250" y="252">NOT</text><text x="344" y="252">STEP</text><text x="438" y="252">TO</text><text x="532" y="252">THEN</text></g><g style="text-anchor:middle"><text x="836" y="349">SYMBOL</text><text x="836" y="365">SHIFT</text></g><text x="26" y="107">DEF FN</text><text x="120" y="107">FN</text><text x="214" y="107">LINE</text><text x="308" y="107">OPEN #</text><text x="402" y="107">CLOSE #</text><text x="496" y="107">MOVE</text><text x="590" y="107">ERASE</text><text x="684" y="107">POINT</text><text x="778" y="107">CAT</text><text x="872" y="107">FORMAT</text><text x="72" y="201">ASN</text><text x="166" y="201">ACS</text><text x="260" y="201">ATN</text><text x="354" y="201">VERIFY</text><text x="448" y="201">MERGE</text><text x="542" y="201">[</text><text x="636" y="201">]</text><text x="730" y="201">IN</text><text x="824" y="201">OUT</text><text x="918" y="201">©</text><text x="96" y="295">~</text><text x="190" y="295">|</text><text x="284" y="295">\</text><text x="378" y="295">{</text><text x="472" y="295">}</text><text x="566" y="295">CIRCLE</text><text x="660" y="295">VAL $</text><text x="754" y="295">SCREEN $</text><text x="848" y="295">ATTR</text><text x="146" y="389">BEEP</text><text x="240" y="389">INK</text><text x="334" y="389">PAPER</text><text x="428" y="389">FLASH</text><text x="522" y="389">BRIGHT</text><text x="616" y="389">OVER</text><text x="710" y="389">INVERSE</text><text x="120" y="24">RED</text></g><text x="26" y="24" fill="#24A">BLUE</text><text x="214" y="24" fill="#8D3F6F">MAGENTA</text><text x="402" y="24" fill="#4990CE">CYAN</text><text x="496" y="24" fill="#F3B854">YELLOW</text><text x="590" y="24">WHITE</text><text x="876" y="24" fill="#000">BLACK</text><path fill="none" stroke="#FFF" d="M403.5 34.5l12-5v2h8v6h-8v2zM507.5 39.5l-8-6h3v-3h10v3h3zM601.5 30.5l-8 6h3v3h10v-3h3zM707.5 34.5l-12-5v2h-8v6h8v2zM67.5 55.5h11v11h-11zM161.5 55.5h11v11h-11zM255.5 55.5h11v11h-11zM349.5 55.5h11v11h-11zM443.5 55.5h11v11h-11zM537.5 55.5h11v11h-11zM631.5 55.5h11v11h-11z"/><path fill="#FFF" d="M67 55h6v6h6v6h-12M161 61h6v-6h6v12h-12M255 61h12v6h-12M349 55h12v6h-6v6h-6M443 55h6v12h-6M537 61h12v-6h-6v12h-6M631 61h6v6h-6M725 55h12v12h-12"/></g></svg>